<svg width="512" height="512" viewBox="0 0 512 512" fill="none" xmlns="http://www.w3.org/2000/svg">
<g clip-path="url(#clip0_33_102)">
<rect x="0.418945" y="157.075" width="24.8064" height="198.451" fill="black"/>
<rect x="74.8379" y="157.001" width="24.8064" height="74.4191" transform="rotate(90 74.8379 157.001)" fill="black"/>
<rect x="74.8379" y="330.719" width="24.8064" height="74.4191" transform="rotate(90 74.8379 330.719)" fill="black"/>
<rect x="378.132" y="158.729" width="24.8064" height="138.916" transform="rotate(45 378.132 158.729)" fill="black"/>
<rect x="326.866" y="158.729" width="24.8064" height="251.107" transform="rotate(45 326.866 158.729)" fill="#0094FF"/>
<rect x="394.483" y="336.27" width="24.8064" height="137.215" transform="rotate(135 394.483 336.27)" fill="black"/>
<rect x="56.647" y="215.972" width="24.8064" height="138.916" transform="rotate(-45 56.647 215.972)" fill="black"/>
<rect x="235.39" y="198.419" width="24.8064" height="138.916" transform="rotate(45 235.39 198.419)" fill="black"/>
<rect x="484.97" y="157.076" width="24.8064" height="74.4191" transform="rotate(90 484.97 157.076)" fill="black"/>
<path fill-rule="evenodd" clip-rule="evenodd" d="M460.164 157H484.97V227.123L512.419 254.572L484.97 282.021V355.451H460.164V275.406L480.997 254.572L460.164 233.738V157Z" fill="black"/>
<rect x="484.97" y="330.721" width="24.8064" height="74.4191" transform="rotate(90 484.97 330.721)" fill="black"/>
</g>
<defs>
<clipPath id="clip0_33_102">
<rect width="512" height="512" fill="white"/>
</clipPath>
</defs>
</svg>
