<svg width="310" height="121" viewBox="0 0 310 121" fill="none" xmlns="http://www.w3.org/2000/svg">
<rect x="197.397" y="1.04541" width="15" height="151.84" transform="rotate(45 197.397 1.04541)" fill="#0094FF"/>
<path d="M1.31134e-06 0.0456543H15V120.046H1.31134e-06V0.0456543Z" fill="black"/>
<path d="M45 0.000732422V15.0007L0 15.0007L6.55671e-07 0.000730455L45 0.000732422Z" fill="black"/>
<path d="M45 105.045V120.045L1.31134e-06 120.046L6.55671e-07 105.045H45Z" fill="black"/>
<path d="M228.397 1.04541L239.004 11.652L179.607 71.049L169 60.4424L228.397 1.04541Z" fill="black"/>
<path d="M238.284 108.401L227.678 119.008L169.008 60.3383L179.615 49.7317L238.284 108.401Z" fill="black"/>
<path d="M34 35.6597L44.6066 25.0531L104.004 84.45L93.397 95.0566L34 35.6597Z" fill="black"/>
<path d="M142.083 25.0454L152.69 35.652L93.2926 95.049L82.686 84.4424L142.083 25.0454Z" fill="black"/>
<path d="M293 0.0456543V15.0457L248 15.0457V0.0456523L293 0.0456543Z" fill="black"/>
<path d="M278 0H293V42.4018L309.598 58.9998L293 75.5977V120H278V71.5977L290.598 58.9998L278 46.4018V0Z" fill="black"/>
<path d="M293 105.046V120.046H248V105.046H293Z" fill="black"/>
</svg>
